<svg width="19" height="11" viewBox="0 0 19 11" fill="none" xmlns="http://www.w3.org/2000/svg">
<path d="M17.8981 0.783971C17.5858 0.473552 17.1634 0.299316 16.7231 0.299316C16.2828 0.299316 15.8604 0.473552 15.5481 0.783971L9.56477 6.68397L3.66477 0.783971C3.3525 0.473552 2.93008 0.299316 2.48977 0.299316C2.04946 0.299316 1.62705 0.473552 1.31477 0.783971C1.15856 0.938909 1.03457 1.12324 0.949955 1.32634C0.865341 1.52944 0.821777 1.74728 0.821777 1.9673C0.821777 2.18732 0.865341 2.40517 0.949955 2.60827C1.03457 2.81136 1.15856 2.9957 1.31477 3.15064L8.38144 10.2173C8.53638 10.3735 8.72071 10.4975 8.92381 10.5821C9.12691 10.6667 9.34475 10.7103 9.56477 10.7103C9.78479 10.7103 10.0026 10.6667 10.2057 10.5821C10.4088 10.4975 10.5932 10.3735 10.7481 10.2173L17.8981 3.15064C18.0543 2.9957 18.1783 2.81136 18.2629 2.60827C18.3475 2.40517 18.3911 2.18732 18.3911 1.9673C18.3911 1.74728 18.3475 1.52944 18.2629 1.32634C18.1783 1.12324 18.0543 0.938909 17.8981 0.783971Z" fill="#333333"/>
</svg>
