<svg width="227" height="192" viewBox="0 0 227 192" fill="none" xmlns="http://www.w3.org/2000/svg">
<mask id="mask0_1_5729" style="mask-type:alpha" maskUnits="userSpaceOnUse" x="0" y="0" width="227" height="192">
<path d="M48.8322 0.241699L226.689 71.9607L178.435 191.627L0.577953 119.908L48.8322 0.241699Z" fill="white"/>
</mask>
<g mask="url(#mask0_1_5729)">
<path fill-rule="evenodd" clip-rule="evenodd" d="M210.569 99.249C210.544 99.232 210.52 99.2212 210.495 99.2003C210.438 99.151 210.387 99.0954 210.342 99.0348C210.465 99.0589 210.575 99.094 210.588 99.1592C210.594 99.1888 210.585 99.2191 210.569 99.249ZM221.34 84.5425L221.345 84.3525L221.323 84.1643C221.262 83.616 220.875 81.7855 218.51 81.262C218.124 81.1764 217.734 81.0981 217.346 81.0194L217.125 80.9748C216.2 80.7871 212.046 80.0194 210.769 79.8281C210.436 79.7773 209.799 79.6661 209.063 79.5371C206.919 79.1604 205.343 78.891 204.612 78.8476C204.253 78.8265 203.852 78.7736 203.43 78.7176C203.173 78.6835 202.917 78.6499 202.661 78.6206C201.742 78.517 200.941 78.7008 200.143 79.199C199.903 79.35 199.677 79.5214 199.466 79.7112C199.313 79.422 199.138 79.1455 198.941 78.8842C198.098 77.7799 196.517 77.1362 196.45 77.109C195.835 76.8619 194.345 76.419 193.737 76.3262C193.18 76.2407 191.866 76.1245 190.886 76.3006C190.127 76.4373 188.103 77.1811 187.207 77.9373C187.047 78.0719 186.894 78.2135 186.749 78.3604C186.617 78.0098 186.453 77.6719 186.26 77.351C185.4 75.9321 184.063 75.3097 183.129 74.9638C182.85 74.8603 182.427 74.7015 181.928 74.6324C181.797 74.6115 181.305 74.5226 181.136 74.4845C181.045 74.4644 180.909 74.4361 180.53 74.3688C180.24 73.7087 179.939 73.0538 179.626 72.4042L180.36 71.7632L179.556 69.8937C177.241 64.5093 173.614 60.1228 170.098 56.0914C160.06 44.5822 146.687 37.7281 130.362 35.7195C122.497 34.7514 111.591 36.3751 101.187 40.0616C96.2315 41.8177 84.5862 46.5293 81.1385 53.0515C78.0305 55.8529 75.2098 58.9582 72.7183 62.3211C71.9158 61.9459 70.6568 61.7431 69.1217 62.821L69.0767 62.8516C68.7928 63.0475 68.565 63.1902 68.3597 63.2996C67.8874 63.5511 67.5187 63.7107 67.2193 63.7933L67.1421 63.6334C66.0927 61.443 64.8578 59.5523 63.4732 58.014C62.8311 57.3001 62.1677 56.6057 61.4839 55.9318C60.7641 55.2239 59.9389 54.7276 59.2764 54.3289L59.0483 54.1917C58.174 53.6603 57.3129 53.3736 56.5532 53.1195C56.3236 53.0429 56.0937 52.9669 55.8666 52.8823C55.0315 52.5706 54.1534 52.3327 53.1044 52.1346C50.6222 51.6626 48.2053 51.8246 45.9484 52.0637C44.5976 52.2074 43.3749 52.3519 42.0961 52.6756C40.8853 52.9818 39.6991 53.3782 38.5472 53.8616C36.1487 54.8705 34.0228 56.2161 32.0519 57.5067C31.5512 57.8352 30.9698 58.2244 30.4088 58.6956C29.9706 59.0638 29.5942 59.4459 29.2615 59.7836C29.1582 59.8882 29.0553 59.9935 28.9486 60.0995C28.7139 60.3319 28.4679 60.5543 28.2239 60.7768C27.9491 61.0258 27.6745 61.2763 27.4092 61.5362C26.0996 62.8164 24.6383 64.6416 23.0648 66.9624C22.0596 68.4454 21.3608 69.7513 20.6192 71.1338C20.4212 71.5043 20.217 71.8848 19.9995 72.2829C18.8539 74.3743 17.9516 76.5901 17.3102 78.8868C16.9805 80.0749 16.6956 81.3256 16.4629 82.6057C16.4258 82.808 16.3294 83.2674 16.2234 83.7767C16.005 84.8266 15.8571 85.543 15.7981 85.9187C15.5921 87.2236 15.5762 88.4742 15.5777 89.7471C15.5794 91.066 15.6257 92.1434 15.7237 93.1357C15.9957 95.8861 16.7132 98.4069 17.8561 100.627C18.4042 101.692 18.9587 102.622 19.5498 103.47C20.2819 104.521 21.0211 105.541 22.0123 106.472C23.9205 108.264 26.0126 109.409 27.8077 110.293C29.8213 111.284 32.0478 111.937 34.6103 112.294C35.212 112.377 35.8143 112.453 36.4172 112.515C36.74 112.548 37.0404 112.548 38.8767 112.397C38.8745 112.403 38.8726 112.407 38.8695 112.412L38.8403 112.47C38.6719 112.798 38.3213 113.482 38.3351 114.376C38.3567 115.844 39.2573 117.115 40.5762 117.539C40.6875 117.575 40.8273 117.613 40.9895 117.641C41.825 117.788 43.2682 117.701 44.57 115.942L45.0479 115.3C45.6732 114.461 46.7263 113.046 47.2337 112.36C47.8036 111.588 48.2864 110.832 48.7529 110.1C48.942 109.803 49.1322 109.504 49.3308 109.203C49.495 108.952 50.3232 107.862 50.7217 107.337L51.01 106.956C51.2188 107.63 51.4833 108.285 51.8007 108.915C52.171 109.654 52.7591 110.747 53.5828 111.714C54.4785 112.764 55.473 113.533 56.2409 114.086C57.256 114.816 58.1244 115.35 58.9745 115.766C59.3963 115.972 60.3043 116.379 61.0281 116.585L61.4741 116.717C61.9224 116.851 62.3718 116.981 62.8222 117.108C63.7369 120.279 64.8994 123.372 66.299 126.359C68.2405 132.124 71.652 137.62 77.0233 143.638C86.5664 154.332 98.155 160.913 111.562 163.272C114.352 163.762 117.222 164.071 120.167 164.195C137.197 164.914 152.338 159.458 165.172 147.979C167.737 145.685 170.644 143.085 172.009 138.95L172.017 138.924C172.715 138.055 173.389 137.167 174.039 136.261C176.63 136.693 179.876 137.223 180.857 137.341C181.493 137.418 182.113 137.498 182.696 137.617C183.009 137.681 183.322 137.735 183.634 137.788C184.029 137.855 184.398 137.916 184.709 138C185.707 138.269 186.715 138.498 187.731 138.686C188.631 138.87 189.379 138.74 189.965 138.518C190.136 138.705 190.32 138.88 190.524 139.034C191.096 139.459 191.759 139.742 192.461 139.861C194.08 140.147 195.856 139.616 196.966 138.356C197.984 137.199 198.481 135.733 198.299 134.435C198.142 133.316 197.52 132.359 196.548 131.74C196.091 131.45 195.586 131.243 195.057 131.128C196.336 128.935 197.024 127.499 197.103 126.855C197.265 125.509 196.56 124.265 195.404 123.714C194.038 122.92 192.117 122.984 190.643 124.885C189.938 125.625 186.252 128.141 185.178 128.67C184.535 128.989 183.874 129.27 183.199 129.512C182.724 129.681 182.35 129.791 182.064 129.782C181.573 129.767 181.027 129.68 180.365 129.569C180.118 129.527 179.806 129.476 179.485 129.424L179.521 129.336C179.628 129.063 179.803 128.739 179.989 128.397C180.075 128.24 180.16 128.082 180.242 127.924C180.449 127.536 181.856 125.229 182.786 123.704L183.422 122.66C183.445 123.106 183.558 123.542 183.754 123.942C183.96 124.371 184.259 124.748 184.628 125.048C184.997 125.348 185.427 125.562 185.889 125.676C186.871 125.919 187.922 125.694 188.778 125.062C189.704 124.375 190.246 123.446 190.642 122.768C190.713 122.647 190.781 122.528 190.85 122.419C191.129 121.973 191.412 121.531 191.696 121.09C191.879 120.805 192.062 120.522 192.243 120.235C192.471 119.877 192.728 119.51 193.001 119.121C193.575 118.3 194.227 117.369 194.733 116.305L194.754 116.263C195.025 115.697 195.744 114.195 194.956 112.666C194.757 112.276 194.477 111.934 194.136 111.66C193.794 111.386 193.399 111.188 192.976 111.079C192.277 110.898 191.649 110.988 191.145 111.155C191.359 110.866 191.54 110.624 191.671 110.447C191.883 110.165 192.088 109.878 192.293 109.591C192.515 109.28 192.737 108.97 192.969 108.667C193.143 108.441 193.311 108.211 193.481 107.98C193.756 107.602 194.017 107.245 194.271 106.963C194.367 106.854 194.465 106.747 194.56 106.646L194.748 106.675C195.434 106.783 196.122 106.891 196.801 107.016C197.482 107.136 198.153 107.302 198.812 107.512C199.266 107.66 199.508 107.777 199.633 107.85C199.636 107.961 199.636 108.102 199.636 108.216L199.637 108.267C199.637 108.575 199.613 108.802 199.562 108.959C199.491 109.176 199.418 109.391 199.346 109.605C199.139 110.211 198.927 110.836 198.75 111.518L198.706 111.645C198.373 112.587 197.753 114.34 198.86 115.851C199.48 116.698 200.457 117.163 201.539 117.126C203.306 117.066 204.266 115.718 204.626 115.21C204.647 115.183 204.666 115.155 204.684 115.126C205.202 114.525 205.55 113.899 205.822 113.368C206.069 112.887 206.437 112.374 206.828 111.831C206.943 111.67 207.059 111.51 207.172 111.348C207.585 110.763 207.944 110.173 208.293 109.603L208.489 109.283C208.985 108.475 209.603 107.47 209.942 106.258C210.235 105.205 210.194 104.359 209.988 103.689C210.131 103.688 210.275 103.695 210.416 103.684C213.267 103.466 215.58 101.181 215.681 98.467C215.702 97.7986 215.572 97.1342 215.3 96.5238C215.028 95.9135 214.621 95.3728 214.111 94.9425C213.567 94.4846 212.928 94.1541 212.241 93.9749C211.553 93.7958 210.834 93.7725 210.136 93.9069L210.135 93.9064C210.031 93.9273 209.929 93.9523 209.827 93.9815C210.078 93.5858 210.328 93.1987 210.585 92.8283L210.783 92.5407C210.881 92.399 210.977 92.2583 211.076 92.1191C211.261 91.8565 211.442 91.5896 211.624 91.3226C211.878 90.9464 212.119 90.5922 212.362 90.2684C212.811 89.6708 213.203 89.0749 213.582 88.4984C213.716 88.2955 213.846 88.0956 213.977 87.9017C214.062 88.1333 214.175 88.3546 214.314 88.5639C214.546 88.9137 214.846 89.2123 215.198 89.4413C215.549 89.6703 215.943 89.8249 216.356 89.8956C216.924 89.9951 218.784 90.1227 219.882 87.8574L219.89 87.8411C219.934 87.7657 220.001 87.6624 220.076 87.5423C220.844 86.3174 221.317 85.5175 221.339 84.5437L221.34 84.5425Z" fill="#FFFFFE"/>
<path fill-rule="evenodd" clip-rule="evenodd" d="M182.18 110.535C176.418 143.168 145.327 164.974 112.735 159.239C80.144 153.504 58.3951 122.402 64.1582 89.7684C69.9206 57.1355 101.012 35.3302 133.603 41.0651C166.194 46.7994 187.943 77.9021 182.181 110.535" fill="white"/>
</g>
</svg>
