<svg width="371" height="371" viewBox="0 0 371 371" fill="none" xmlns="http://www.w3.org/2000/svg">
<path fill-rule="evenodd" clip-rule="evenodd" d="M287.612 129.497C275.133 125.523 262.123 124.589 249.191 123.194C253.312 122.285 257.773 121.07 261.97 120.604C265.832 120.181 268.13 121.772 271.765 123.038C278.252 125.303 285.5 128.054 291.14 130.685C289.971 130.27 288.794 129.874 287.612 129.497ZM269.839 134.463C256.148 131.905 242.132 131.349 228.46 128.675C231.85 127.637 233.771 126.733 237.373 127.076C242.728 127.584 248.147 128.682 253.379 129.846C260.973 131.538 268.635 133.362 276.033 135.761C273.978 135.283 271.913 134.851 269.839 134.463ZM270.498 137.135C269.561 137.513 266.277 136.23 265.216 136C266.238 136.195 269.899 137.377 270.498 137.135ZM243.239 136.854C232.525 136.182 221.683 135.846 210.951 135.902C212.878 135.182 214.718 134.28 216.595 133.438C221.728 131.138 222.62 131.503 227.744 133.016C234.353 134.968 241.124 136.078 247.9 137.208C246.348 137.064 244.794 136.946 243.238 136.854L243.239 136.854ZM230.736 143.031C215.946 144.153 201.357 145.945 186.593 147.599C189.745 146.326 192.775 144.705 195.787 143.141C200.435 140.728 204.003 141.068 209.185 141.067C214.688 141.063 220.093 141.71 225.564 142.332C226.914 142.487 232.2 142.919 230.736 143.031ZM207.948 131.793C215.844 124.125 224.903 116.98 234.184 111.008C240.074 107.216 246.48 102.935 253.402 106.222C241.954 106.698 226.998 117.081 220.222 125.98C219.897 126.401 219.4 126.693 219.061 127.108C217.789 128.651 219.174 128.82 218.309 129.77C218.208 129.881 213.583 131.77 214.197 131.517C211.059 132.812 207.848 133.898 204.706 135.175C205.769 134.03 206.848 132.901 207.949 131.793L207.948 131.793ZM251.996 113.422C244.224 119.922 235.792 123.381 226.43 126.643C234.98 121.145 243.552 116.648 252.949 112.71C252.631 112.946 252.313 113.183 251.997 113.422L251.996 113.422ZM261.668 115.651C263.288 115.132 264.011 115.267 264.371 117.19C260.185 117.032 258.197 117.605 254.241 118.566C256.646 117.423 259.128 116.45 261.668 115.651ZM266.805 116.701C266.514 116.173 266.389 115.164 266.186 114.649C269.294 114.599 271.933 115.256 274.574 116.885C273.7 116.893 267.021 117.664 266.805 116.7L266.805 116.701ZM140.774 188.852C163.495 186.045 185.286 185.312 208.105 187.536C190.914 189.044 173.65 192.498 156.733 195.852C143.151 198.545 129.378 200 115.757 202.434C118.281 199.806 120.641 197.024 123.212 194.435C127.678 189.939 134.369 189.652 140.774 188.852ZM218.889 195.542C222.991 195.122 227.083 194.613 231.163 194.015C235.598 193.361 242.672 190.437 247.135 191.317C222.77 198.55 196.442 201.884 171.395 205.961C160.984 207.655 150.385 210.133 140.3 213.275C125.739 217.81 109.315 217.788 95.4176 224.159C99.6677 219.705 104.323 213.334 109.165 209.712C112.684 207.078 118.521 206.858 122.708 206.305C129.602 205.396 136.529 204.689 143.44 203.946C168.6 201.234 193.719 198.174 218.889 195.542ZM91.4783 219.668C89.4341 221.917 87.4446 224.216 85.5113 226.561C89.0205 210.102 88.8629 192.744 90.8397 176.034C91.9576 166.586 93.0066 157.032 94.5099 147.646C95.8391 139.359 96.1932 128.067 100.637 120.907C103.953 123.987 106.404 127.256 105.745 131.733C104.898 137.49 102.418 143.024 101.264 148.736C99.9685 155.154 99.091 161.688 98.2898 168.185C97.0574 178.179 96.7697 188.345 97.2978 198.393C97.4405 201.218 97.622 204.04 97.8422 206.86C97.9388 208.091 98.576 210.187 98.3045 211.337C97.6412 214.166 93.6166 217.3 91.4783 219.668ZM115.981 151.136C117.929 141.887 119.116 131.141 123.167 122.471C125.416 117.654 127.579 115.938 130.938 121.143C133.336 124.856 129.569 133.008 128.382 137.676C125.015 150.921 123.237 164.512 121.009 177.98C120.427 181.509 120.255 184.998 119.879 188.532C119.566 191.46 119.647 191.286 117.96 193.492C116.875 194.916 115.164 196.127 113.856 197.376C110.427 200.654 106.95 203.888 103.557 207.202C108.72 188.731 112.041 169.883 115.981 151.136ZM370.002 193.145C366.873 188.983 362.905 185.231 358.845 182.016C353.222 177.556 346.336 174.949 340.72 170.66C335.997 167.05 332.096 162.246 327.269 158.591C319.601 152.788 311.71 147.963 302.731 144.476C314.166 148.378 325.133 153.076 334.294 161.173C335.068 161.859 341.778 170.449 343.166 169.629C344.116 169.074 340.09 162.856 339.251 161.408C333.061 150.76 320.358 143.947 310.32 137.109C298.983 129.386 286.603 125.054 273.687 120.782C285.422 121.431 295.308 124.444 305.139 131.047C309.974 134.293 314.448 138.085 319.432 141.098C323.85 143.771 328.094 146.234 331.907 149.82C336.178 153.84 339.609 158.219 342.443 163.354C343.508 165.285 348.71 176.978 348.85 169.551C348.919 165.891 344.297 160.675 342.426 158.031C339.271 153.575 335.612 149.562 331.782 145.682C325.267 139.088 319.049 132.244 311.316 127.042C306.918 124.081 302.312 121.735 297.28 120.044C293.394 118.737 289.405 117.798 285.327 117.336C281.455 116.898 281.082 116.945 278.001 114.944C275.353 113.224 273.093 111.383 270.13 110.155C267.111 108.904 264.541 108.724 262.295 107.017C259.645 104.997 258.617 102.629 255.198 101.365C252.054 100.202 248.837 100.458 245.557 100.72C234.71 101.584 223.697 104.335 214.722 110.751C206.791 116.422 201.399 125.473 197.565 134.298C195.448 139.167 196.885 138.985 191.2 141.784C185.223 144.727 179.281 147.62 173.466 150.904C183.053 138.987 191.388 125.793 201.899 114.624C207.52 108.659 213.032 102.596 218.651 96.6344C220.31 94.8776 233.412 82.223 226.053 82.6719C224.351 82.7747 221.792 85.0491 220.228 85.7958C217.107 87.2938 214.008 88.6212 211.123 90.5788C206.122 93.9724 202.04 98.1944 197.951 102.586C187.358 113.96 177.81 126.126 172.922 141.061C171.764 144.596 171.341 148.58 169.527 151.822C168.25 154.11 166.75 154.9 164.156 156.591C159.707 159.484 155.383 162.458 151.17 165.693C161.943 149.738 168.892 131.884 177.38 114.704C188.297 92.616 193.293 67.8266 202.476 45.0047C204.257 40.5781 206.427 35.7071 209.416 31.9393C210.325 30.7934 213.198 29.0756 213.449 27.6308C214.112 23.8194 211.53 24.8427 209.635 25.9388C204.99 28.6239 200.48 34.6803 197.306 38.7628C192.686 44.7007 188.008 51.1422 184.006 57.5399C170.221 79.5749 161.081 104.58 153.49 129.329C149.918 140.963 146.234 152.789 144.476 164.854C143.629 170.68 144.592 170.836 139.725 174.823C134.642 178.989 129.784 183.408 124.741 187.615C129.337 178.178 132.076 166.475 135.392 156.464C138.865 145.976 142.814 135.646 146.343 125.173C152.083 108.132 156.378 90.6849 160.511 73.2011C162.706 63.9053 164.763 54.6023 166.644 45.2409C169.062 33.2111 171.521 19.3204 176.913 8.22348C177.717 6.57309 180.985 -1.09519 176.257 1.54598C174.091 2.75341 171.524 10.6551 170.418 12.7856C164.154 24.8848 158.877 37.1698 154.163 49.9461C145.806 72.6004 139.941 95.8155 133.32 118.982C130.01 114.462 123.137 109.487 117.198 111.411C111.864 113.139 109.24 120.733 107.562 125.489C107.375 122.198 103.338 116.06 100.191 115.85C98.4022 115.731 95.32 117.425 93.8243 118.133C90.1265 119.881 85.9264 122.092 83.6202 125.533C78.8938 132.592 79.7904 143.67 78.9506 151.84C76.4498 176.203 76.8979 199.728 79.652 223.991C80.2812 229.544 81.0417 232.119 77.8828 236.495C74.2747 241.496 70.7962 246.412 67.2436 251.106C68.3851 248.931 67.3535 242.287 67.3403 239.968C67.3037 233.759 67.3673 227.601 67.6896 221.396C68.3511 208.617 67.6653 195.408 67.0214 182.62C65.6957 156.273 65.8163 130.26 66.7046 103.92C66.8906 98.3686 66.7657 92.8522 66.7317 87.3045C66.7174 85.0141 67.4753 79.4032 63.8374 80.7446C62.781 81.1337 62.0037 85.2303 61.6969 86.2693C58.8631 95.8466 57.9735 106.207 56.6756 116.043C55.4964 124.99 54.419 133.95 53.6716 142.94C52.2356 160.211 52.7098 176.982 52.7973 194.282C52.8707 208.533 54.4158 224.026 57.0501 237.173C58.2855 243.339 60.4326 250.002 61.0581 256.216C61.4375 259.958 59.2476 261.345 56.7329 264.742C54.1882 268.179 51.6747 271.641 49.2461 275.16C49.4802 269.768 47.9433 264.193 47.5826 258.797C47.2804 254.29 46.9939 249.804 46.588 245.301C46.2653 241.755 45.9612 238.206 45.647 234.656C44.0276 216.388 42.446 198.159 39.4568 180.059C34.8614 152.263 29.8487 123.697 30.0345 95.4194C30.0714 90.0226 30.2457 84.6296 30.3082 79.2315C30.3541 75.1629 29.9801 71.1265 29.9563 67.0636C29.9438 64.9915 30.888 60.9848 30.1969 58.9201C28.1974 52.9461 26.4652 59.6214 26.4096 62.3649C26.3814 63.8104 26.2948 65.2517 26.2727 66.6966C26.1391 75.7756 25.3575 84.7304 24.9092 93.7992C24.2661 106.876 24.8406 119.887 25.2749 132.956C25.7492 147.194 25.3928 161.528 26.9232 175.713C28.8971 193.997 32.8499 212.174 35.3308 230.409C36.4103 238.351 37.9161 246.204 38.7332 254.183C39.4951 261.639 42.1415 268.969 43.7535 275.857L43.7445 275.329C44.3691 278.257 45.3494 279.721 44.4596 282.407C43.8323 284.295 42.1114 286.279 41.0807 288.013C38.8825 291.701 36.7725 295.431 34.662 299.169C36.5325 289.681 33.9971 277.711 31.9899 268.391C29.7714 258.078 27.0678 247.516 23.9029 237.459C21.4418 229.638 19.4052 221.951 18.6619 213.81C17.6717 202.967 14.7232 192.541 13.1379 181.799C11.6423 171.658 9.12342 161.615 6.97677 151.576C6.49318 149.316 4.33476 138.506 0.823187 143.382C-0.0426187 144.586 1.01859 147.781 1.15462 149.024C1.48882 152.104 1.69707 155.135 1.83529 158.227C2.73142 177.858 6.84257 197.787 10.065 217.128C12.1241 229.487 14.3046 241.889 17.3138 254.052C19.6573 263.522 20.9229 273.362 23.5223 282.699C24.7691 287.177 26.0354 291.756 28.0279 295.961C29.7612 299.62 31.5086 300.643 30.8971 304.586C30.0216 310.225 25.2213 316.078 23.0551 321.536C21.2834 326 19.4768 330.47 17.7887 334.964C15.4306 341.26 13.2207 347.667 11.1518 354.061C9.95099 357.765 7.62174 362.546 7.40364 366.313C7.07133 372.035 10.3101 370.399 12.0109 366.571C13.155 363.995 14.0684 361.225 15.1445 358.605C23.0404 339.415 30.27 318.839 42.0597 301.619C46.9775 294.428 60.5719 292.696 68.5481 290.189C87.7359 284.15 108.493 283.353 128.402 281.147C144.455 279.37 160.249 277.737 175.965 273.788C178.261 273.214 220.154 260.879 219.103 258.728C219.69 259.935 173.271 270.266 169.554 270.57C157.896 271.52 146.276 271.775 134.593 272.269C105.371 273.506 76.628 274.208 50.0754 288.016C53.4261 282.746 57.4342 272.797 63.3158 270.757C74.6515 266.819 86.5985 264.275 98.0188 260.435C109.891 256.45 122.082 253.779 134.024 250.086C145.952 246.395 157.854 242.573 169.963 239.469C182.135 236.351 194.709 233.1 207.357 233.501C212.225 233.656 217.107 234.088 221.954 234.546C223.785 234.719 238.356 237.412 230.477 234.066C225.375 231.897 218.695 231.73 213.229 230.934C206.961 230.025 200.953 229.217 194.618 229.266C180.825 229.373 166.968 232.607 153.635 235.807C137.677 239.634 121.066 243.432 105.833 249.591C91.8727 255.237 77.8407 260.657 63.8796 266.232C66.4184 262.346 69.1184 258.576 71.7598 254.759C73.0425 252.903 74.396 249.889 76.2174 248.622C78.9972 246.685 84.8463 246.182 88.0749 245.106C101.065 240.787 114.115 235.714 127.426 232.501C148.829 227.334 170.74 224.128 192.276 219.53C204.845 216.848 218.154 214.482 231.005 214.711C235.839 214.799 240.679 214.623 245.426 215.644C247.105 216.003 249.219 216.933 250.948 217.129C256.123 217.709 252.284 215.221 249.145 214.133C224.266 205.519 196.843 212.405 171.765 215.91C155.179 218.226 138.806 220.587 122.97 226.293C108.379 231.548 94.4296 238.557 79.5961 243.171C83.4839 237.647 86.95 231.925 93.1617 228.886C100.036 225.525 107.281 224.063 114.783 222.788C130.38 220.131 145.873 216.729 161.52 214.414C175.895 212.291 190.243 210.406 204.492 207.508C218.365 204.682 232.157 203.031 245.399 197.691C249.591 196 254.674 193.069 259.15 192.813C264.952 192.483 271.977 194.221 277.666 195.082C291.522 197.177 305.905 199.337 318.714 205.202C331.282 210.958 339.816 220.004 349.437 229.461C352.468 232.445 355.45 235.479 358.473 238.471C359.146 239.139 363.163 244.147 363.991 244.21C369.115 244.594 359.449 234.438 357.781 232.357C346.254 217.976 333.78 205.983 316.822 198.148C302.37 191.469 287.261 187.126 271.501 184.902C271.541 182.053 283.152 181.912 283.47 178.961C283.892 175.025 275.767 178.963 274.157 179.448C271.099 180.365 268.125 181.514 265.052 182.383C257.996 184.377 250.19 181.921 243.023 181.001C234.381 179.896 225.625 179.172 216.934 178.649C188.164 176.914 160.56 177.869 132.616 185.578C137.63 181.186 142.861 177.011 148.161 172.97C150.225 171.397 151.798 169.956 154.136 169.218C158.084 167.97 162.772 168.528 166.888 168.124C183.16 166.538 199.358 164.754 215.72 164.252C242.646 163.425 270.721 168.258 296.256 176.818C308.714 180.996 320.936 185.059 331.753 192.75C334.258 194.527 336.485 196.568 338.761 198.623C339.702 199.472 345.446 205.649 345.738 205.617C348.23 205.351 336.676 192.566 334.997 190.933C312.436 169.004 283.161 164.018 253.268 159.615C222.008 155.01 190.631 157.456 159.835 164.404C165.985 160.567 172.029 153.992 178.932 151.76C184.176 150.064 190.832 150.386 196.139 149.843C211.526 148.26 227.655 150.947 243.077 152.039C260.498 153.272 277.421 155.506 294.264 160.147C302.882 162.522 311.274 165.036 319.683 168.12C326.347 170.564 331.784 172.069 337.175 176.535C339.35 178.353 345.821 183.18 349.322 186.463C350.75 187.804 352.229 190.636 353.843 191.309C359.855 193.817 351.876 184.022 350.566 182.321C355.345 185.177 359.806 188.482 364.049 192.002C364.888 192.701 365.691 193.233 366.541 193.87C367.538 194.621 368.061 196.812 369.769 196.082C371.16 195.484 370.666 194.051 370.002 193.145Z" fill="#012A32"/>
</svg>
